<?xml version="1.0" encoding="UTF-8"?> <svg xmlns="http://www.w3.org/2000/svg" width="349" height="305" viewBox="0 0 349 305" fill="none"><path d="M40.4835 83.1741C42.4443 81.5691 45.3347 79.9182 47.6167 78.8225C48.3304 78.4784 48.223 79.0504 48.7258 78.8304C49.7078 78.4012 50.4395 77.6965 51.4303 77.3136C51.7603 77.1883 51.7474 77.9863 52.0847 77.8423C53.9316 77.0501 55.4512 75.9341 57.2599 75.0362C66.1579 70.6273 74.8982 66.4022 84.1236 62.582C87.1628 61.3209 91.0755 60.3102 94.1131 58.7962C94.4684 58.6182 94.0286 58.1601 94.0804 58.0868C94.9026 56.9537 94.9827 58.2047 95.7559 58.0667C98.8288 57.5155 102.021 56.3684 104.712 55.1615C105.858 54.647 104.281 53.9661 105.692 54.162C105.789 54.1746 105.699 54.8709 106.045 54.8192C106.829 54.6999 108.185 54.1105 108.772 53.963C109.903 53.6812 110.083 53.6141 111.128 53.2725C112.556 52.8128 114.352 52.5587 115.845 51.9423C116.163 51.809 115.536 51.3324 116.028 51.0644C116.519 50.7957 117.928 50.4204 118.442 50.4241C118.956 50.427 118.901 50.9706 119.018 51.0563C119.979 51.7846 121.2 50.0166 121.401 49.9242C125.036 48.2762 128.508 48.1414 132.094 47.2438C134.815 46.5616 137.683 45.6335 140.306 45.0997C143.428 44.4676 146.141 44.2785 149.169 43.6576C149.489 43.5931 148.976 42.92 149.367 42.8398C153.261 42.0431 157.17 41.4799 161.143 41.3542C161.425 41.3443 161.707 41.3372 161.988 41.333C162.425 41.3277 161.958 42.0572 162.398 42.0918C165.064 42.275 169.217 43.2441 170.627 40.2981C172.418 40.3128 174.589 40.3776 176.212 40.9672C177.238 41.3481 176.238 42.0595 177.489 41.7678C177.771 41.7041 177.417 41.0653 177.84 41.0183C179.667 40.8227 181.613 41.1266 183.426 40.9492C183.792 40.9115 183.742 40.3392 183.853 40.2463C184.8 39.4953 186.138 41.0138 186.424 41.1499C188.722 42.1705 190.485 42.158 192.666 42.603C193.181 42.7105 192.72 41.8419 193.223 41.92C195.79 42.329 198.453 43.0821 200.784 44.1722C201.305 44.4181 200.609 44.8771 200.846 45.0259C201.875 45.6743 202.517 44.6001 203.521 45.238C203.73 45.3711 203.413 45.8465 203.433 45.9188C203.741 47.0471 204.767 45.9895 204.951 46.0286C207.196 46.4655 207.963 48.3442 209.962 49.085C210.203 49.1747 209.986 48.2867 210.655 48.5829C215.109 50.5535 219.41 53.5338 222.775 57.0022C223.297 57.54 222.551 57.6114 222.547 57.692C222.471 58.9425 223.724 58.2243 223.941 58.3431C225.643 59.3156 226.129 61.3544 228.188 61.1212C228.27 61.2147 228.35 61.3068 228.428 61.3974C232.638 66.0042 234.388 72.2733 234.148 77.8275C234.06 80.4689 233.486 83.0542 232.496 85.3955C232.458 85.4912 231.844 85.1666 231.769 85.356C230.832 87.6215 231.942 87.4121 232.687 89.3702C232.865 89.888 231.009 90.5759 230.865 90.6386C230.34 90.8788 229.537 90.1569 229.416 90.2559C228.462 91.0451 231.624 92.021 231.071 93.438C231.049 93.4792 230.557 93.0736 230.455 93.1674C230.136 93.4562 230.214 93.9054 229.873 94.1806C229.09 94.7934 227.507 94.4299 227.823 95.9897C227.862 96.1916 229.682 96.7305 229.026 97.9145C228.776 98.3734 227.757 100.49 227.338 101.014C226.923 101.543 226.601 100.86 226.556 100.89C225.039 102.049 225.055 101.311 223.605 101.507C222.165 101.683 224.731 102.835 224.831 103.298C224.931 103.762 223.723 104.551 223.372 104.697C223.018 104.851 222.881 104.324 222.631 104.496C220.974 105.647 223.418 105.902 223.493 106.65C223.658 108.427 221.296 108.293 220.427 109.288C220.19 109.56 220.745 109.568 220.615 109.856C220.094 110.989 219.135 111.276 218.856 112.778C218.809 113.025 219.209 114.68 218.033 114.779C217.864 114.792 217.603 114.254 217.208 114.628C216.611 115.199 215.725 116.284 215.371 117.092C215.114 117.681 216.227 117.582 215.558 118.073C215.259 118.291 215.224 117.474 214.698 117.906C214.174 118.337 213.216 119.716 212.858 120.239C212.498 120.766 213.227 120.863 213.232 120.931C213.25 121.334 212.781 122.506 212.717 122.591C209.558 127.03 205.659 130.307 202.644 134.652C202.626 134.677 202.609 134.702 202.592 134.727C202.353 135.069 203.06 135.279 203.029 135.336C202.349 136.637 201.648 134.615 200.547 135.005C201.71 135.771 201.148 136.068 200.617 136.941C200.36 137.363 200.941 137.504 200.955 137.574C201.108 138.659 199.98 138.355 199.733 138.314C198.821 138.16 199.186 139.168 198.575 139.062C197.968 138.959 197.868 137.89 197.245 138.616C197.439 139.147 198.888 139.463 198.559 140.155C197.318 142.791 193.015 145.869 191.379 147.366C189.749 148.872 189.302 149.44 188.259 150.22C186.368 151.622 187.652 151.709 186.914 153.039C186.174 154.364 185.042 152.168 184.539 151.945C184.04 151.72 184.242 152.252 183.864 152.226C183.488 152.199 183.645 151.57 183.142 151.905C182.646 152.236 182.086 154.011 182.295 154.543C182.742 155.669 184.091 156.028 182.65 156.807C182.567 156.851 182.358 156.195 182.06 156.387C179.713 157.922 177.576 159.832 175.242 161.355C174.921 161.563 174.711 160.822 174.518 160.937C172.512 162.136 173.905 162.457 173.822 164.265C172.888 162.785 171.668 162.459 170.359 163.597C169.569 164.282 170.202 164.729 170.043 165.574C169.996 165.828 169.098 165.925 169.229 166.28C169.656 167.444 171.034 167.967 169.338 168.755C169.262 168.788 169.036 168.145 168.805 168.294C167.307 169.258 167.942 170.311 166.589 171.666C165.53 172.726 163.025 173.887 161.651 174.889C160.426 173.384 159.489 174.756 159.852 176.199C158.972 176.867 158.109 177.689 157.173 178.23C156.851 178.417 156.676 177.832 156.601 177.815C155.447 177.538 155.914 178.843 155.764 179.035C154.411 180.688 152.671 181.38 151.38 182.823C151.083 183.155 150.81 183.526 150.569 183.956C150.524 184.038 151.27 185.171 150.136 184.828C150.06 184.802 150.3 183.812 149.374 184.51C148.446 185.21 146.299 186.025 145.438 187.518C145.229 187.88 145.146 189.35 143.994 189.176C143.839 189.151 143.688 188.777 143.435 188.704C142.623 188.475 143.263 189.708 142.091 189.161C140.921 188.613 139.445 188.678 138.67 190.304C138.644 190.354 139.01 191.44 138.599 191.741C137.944 192.219 136.892 192.754 136.229 193.279C135.911 193.531 136.527 193.901 136.479 193.954C134.548 195.929 132.639 196.642 130.153 198.206C129.695 198.493 129.018 200.152 127.751 200.2C126.367 200.25 125.323 196.921 123.705 199.111C123.051 199.991 124.466 204.145 121.652 203.533C119.005 206.153 115.602 207.257 113.047 210.029C112.931 210.154 113.18 211.408 112.855 211.621C112.374 211.933 111.788 211.681 111.432 211.89C109.927 212.759 108.893 214.059 107.482 214.959C106.945 215.303 106.803 214.715 106.171 215.118C105.52 215.535 105.55 216.418 104.489 216.717C103.701 216.931 102.192 216.131 101.259 216.558C102.069 217.815 101.474 218.188 100.655 219.224C100.498 219.424 101.006 219.707 100.947 219.824C100.713 220.308 100.122 220.188 99.9137 220.682C99.8637 220.801 100.146 221.227 100.122 221.347C100.069 221.625 99.9141 221.809 99.7112 221.927C99.1232 222.273 98.196 222.104 97.9745 222.076C96.871 221.901 96.9354 222.657 96.2474 222.755C95.5712 222.845 96.1258 222.028 95.4321 222.271C93.9812 222.783 92.4063 223.911 91.1169 224.705C90.6111 225.019 91.3197 225.376 91.2557 225.435C90.2861 226.257 88.8299 226.305 88.9365 227.828C86.3647 225.279 88.4759 228.516 86.5412 228.827C86.3906 228.848 85.4125 227.496 85.752 227.018C86.0872 226.544 87.0601 226.572 87.4962 225.863C87.6026 225.695 87.6452 223.844 87.7079 223.693C88.222 222.507 89.6795 224.518 89.7971 224.606C91.1323 225.504 91.288 223.414 91.4904 223.145C92.4576 221.889 93.7059 221.485 94.5422 220.475C95.0858 219.82 94.2559 218.419 94.8099 218.108C95.5079 217.713 96.1671 217.683 96.8065 217.629C97.8701 217.563 98.7661 217.502 99.1221 215.751C99.2392 215.163 97.8775 213.944 99.9469 214.217C100.068 214.241 101.759 214.628 101.832 213.594C101.842 213.463 101.545 213.039 101.611 212.941C102.06 212.288 102.691 212.351 103.239 211.729C103.788 211.105 104.408 210.312 105.254 209.932C105.761 209.705 106.909 210.075 107.254 210.121C108.25 210.25 108.273 208.867 109.118 209.276C109.978 209.681 109.96 211.237 111.272 210.96C110.529 209.838 109.814 208.652 109.089 207.508C111.298 205.992 113.692 204.804 115.83 203.172C116.095 202.968 115.394 202.584 115.664 202.353C116.809 201.375 118.178 201.01 119.313 199.917C120.19 199.067 120.794 197.665 121.695 196.752C123.23 197.527 124.42 195.982 125.594 195.271C126.006 195.021 126.226 195.37 126.578 195.272C127.898 194.894 126.598 194.172 126.748 193.789C127.394 192.151 129.362 194.522 130.73 193.379C130.803 193.319 130.716 191.316 130.779 191.138C131.169 189.996 131.26 191.489 131.832 191.2C132.877 190.673 133.752 190.491 134.521 189.282C134.746 188.926 134.856 187.542 135.945 187.692C136.088 187.711 136.38 188.172 136.463 188.147C137.946 187.654 136.916 186.295 137.215 185.323C137.514 184.351 139.251 184.472 139.669 184.571C140.755 184.827 139.49 185.194 139.515 185.284C139.81 186.358 140.439 185.633 141.058 185.249C142.183 186.489 142.909 185.779 141.693 184.847C141.558 184.746 141.219 185.218 141.058 185.249C140.527 183.573 141.256 182.72 143.17 183.144C144.067 183.342 144.172 184.336 145.335 182.998C145.861 182.392 144.897 181.692 145.239 181.009C145.764 179.96 146.959 179.401 148.041 178.785C148.572 178.483 149.074 178.169 149.456 177.781C149.877 177.352 149.026 177.239 149.3 176.929C150.026 176.106 151.063 175.858 151.744 174.976C151.806 174.895 151.199 174.543 151.453 174.32C153.373 172.62 155.355 171.511 157.406 169.794C158.396 168.965 159.919 167.195 160.982 166.38C162.822 164.97 165.604 163.833 166.942 162.353C167.813 161.393 167.166 161.083 167.284 160.381C167.508 159.026 169.949 158.948 170.3 158.959C170.311 158.959 169.585 159.811 170.252 159.672C170.978 159.971 170.292 158.969 170.3 158.959C170.527 158.967 172.281 157.601 172.52 157.215C172.651 157.004 172.134 156.629 172.21 156.528C174.03 154.136 176.091 152.03 178.46 150.2C178.508 150.173 178.929 150.736 179.034 150.666C180.508 149.703 180.719 148.317 181.381 146.971C182.05 145.616 182.959 144.959 184.401 145.218C185.053 144.361 186.506 143.649 187.359 143.237C188.208 142.829 187.315 141.794 187.35 141.72C188.407 139.389 189.919 138.923 191.685 137.166C192.531 136.329 193.924 134.454 194.631 133.387C195.183 132.552 195.819 132.288 196.24 131.451C196.298 131.337 195.749 131.052 195.755 131.007C195.836 129.759 196.677 131.072 197.016 131.073C197.424 131.076 197.773 131.071 198.074 131.016C198.695 130.887 199.124 130.553 199.449 129.654C199.562 129.343 198.447 127.312 198.703 126.783C199.036 126.101 199.466 126.791 199.795 126.068C199.824 126.007 199.444 125.728 199.751 125.366C201.192 123.658 202.864 121.922 204.209 120.044C204.393 119.79 203.554 119.664 203.809 119.291C205.006 117.539 206.396 115.681 207.871 114.211C208.238 113.848 208.48 114.411 208.671 114.411C209.833 114.398 209.257 112.839 209.33 112.689C210.935 109.233 213.56 107.531 215.054 104.007C215.132 103.819 214.704 101.707 216.13 101.759C216.226 101.762 217.694 101.806 217.238 100.837C217.209 100.777 216.424 100.814 216.853 100.205C217.292 99.5773 217.481 98.3378 218.609 97.7748C218.96 97.6045 220.464 97.5153 219.994 96.1863C219.964 96.0934 218.551 93.7544 220.201 93.9921C220.471 94.0314 221.965 94.8367 221.664 93.4294C221.601 93.1634 221.098 93.3593 221.118 92.7498C221.145 91.8164 222.015 90.9439 221.698 89.701C221.641 89.4854 220.848 88.3686 221.863 88.115C222.023 88.0736 222.493 88.4336 222.659 88.1562C223.464 86.8068 223.559 85.2018 224.274 83.8619C224.524 83.3823 225.354 83.8493 225.711 83.3505C226.07 82.8495 226.497 81.7587 226.152 81.1417C225.809 80.526 224.3 80.9426 224.27 80.1461C224.233 79.3697 224.224 78.6239 224.218 77.9089C224.203 75.194 224.304 72.7175 223.474 70.783C223.313 70.4203 223 70.9356 222.728 70.4582C222.375 69.8593 221.841 69.2168 221.169 68.5939C219.197 66.6852 216.987 64.762 215.972 63.0784C214.721 61.0255 217.386 62.1871 216.213 60.8599C215.608 60.1988 213.914 61.0787 213.714 61.0068C211.812 60.3624 211.068 59.0273 209.409 58.3488C209.074 58.2151 209.045 58.9829 208.765 58.8643C207.799 58.4618 206.977 57.69 206.043 57.2967C205.632 57.1273 205.48 57.634 205.129 57.423C204.269 56.9187 203.592 56.379 202.868 55.5482C202.802 55.4727 203.607 55.1025 202.932 54.7974C201.845 54.3097 200.594 53.3228 199.105 53.3521C198.666 53.365 198.292 54.495 197.699 53.4437C197.578 53.2268 198.209 51.9152 196.87 52.8081C196.641 52.9504 194.546 54.0948 194.013 52.8584C193.87 52.5302 193.579 51.2508 193.043 51.3176C192.972 51.3315 193.088 52.0157 192.678 51.9866C191.227 51.8725 189.756 51.5186 188.235 51.4797C187.84 51.473 188.311 52.2185 187.728 52.1891C186.117 52.107 184.133 51.7062 182.564 51.3725C181.988 51.2482 182.433 50.7323 182.396 50.6693C181.779 49.6445 181.267 50.9291 181.035 50.9912C179.597 51.363 178.521 50.7074 177.206 50.8493C176.843 50.8877 177.091 51.5175 177.019 51.5724C176.271 52.1101 176.836 50.9907 176.361 50.8633C175.004 50.5048 173.541 50.5829 172.157 50.7222C171.663 50.7742 172.249 51.4751 171.811 51.5138C169.203 51.7586 166.431 51.9404 163.826 51.8732C163.326 51.8606 163.562 51.2662 163.443 51.1529C163.123 50.8455 162.791 50.8611 162.493 51.0049C162.014 51.2333 161.624 51.779 161.484 51.871C160.447 52.5569 159.944 52.1324 158.976 52.3739C154.251 53.5565 148.317 54.3183 143.791 55.0824C137.901 56.0772 133.256 56.6713 127.785 58.3149C127.438 58.4192 127.988 59.0389 127.692 59.138C123.862 60.3859 119.984 61.2494 116.211 62.7021C115.902 62.8199 116.573 63.343 116.085 63.5547C115.088 63.993 113.77 64.3929 112.657 64.5352C112.115 64.606 112.6 63.8003 112.057 63.8838C110.794 64.0769 109.497 64.4786 108.317 65.0224C107.816 65.2554 108.841 65.6532 108.172 65.903C103.616 67.624 99.2292 69.473 94.3296 70.5312C93.994 70.6037 93.1459 69.3706 92.5929 69.9136C92.7034 70.3088 92.895 70.7474 93.0449 71.1563C86.6229 74.1701 80.0646 76.7351 73.7253 79.9934C73.4583 80.131 74.2796 80.5752 73.7656 80.8449C70.7968 82.4061 68.0579 84.1705 64.7031 85.2265C64.371 85.3326 63.8346 84.062 63.0657 84.7524C62.93 84.8745 61.7139 85.8062 61.5314 86.2627C61.5089 86.3283 62.0728 86.7339 61.6647 87.0002C59.2829 88.5413 56.6903 89.9861 54.1041 91.1983C53.6849 91.3938 53.7246 90.5582 53.4224 90.693C51.279 91.6545 49.474 93.4876 47.3059 94.2381C45.8473 94.7445 45.6292 93.4674 44.3134 92.9775C44.127 92.9086 43.3535 93.4228 42.9254 92.9025C41.8454 91.5954 41.1477 89.8208 39.9534 88.458C39.696 88.1638 38.8993 89.2441 38.9706 88.0418C38.9768 87.9599 39.5536 87.1696 39.5586 86.7775C39.5626 86.5056 38.933 86.1124 39.0385 85.6939C39.1448 85.2753 39.7678 85.5385 40.0243 84.9569C40.2792 84.3722 39.6403 83.8669 40.4835 83.1741ZM191.16 141.36C192.201 141.208 190.535 139.486 190.348 140.52C190.341 140.572 191.107 141.369 191.16 141.36ZM114.732 206.273C116.241 206.484 115.918 204.8 114.825 204.586C113.73 204.375 114.275 206.208 114.732 206.273ZM105.994 213.437C107.518 213.385 105.735 210.491 105.009 211.838C104.966 211.915 105.905 213.44 105.994 213.437ZM47.1712 90.6032C47.1437 90.5831 46.5739 90.9342 46.5786 90.9694C46.7145 91.7966 47.8498 91.0965 47.1712 90.6032ZM97.2444 220.463C97.8183 220.631 98.4882 219.539 97.7524 219.347C97.1559 219.196 96.5247 220.259 97.2444 220.463ZM219.421 108.694C219.458 108.701 219.745 108.307 219.569 108.208C219.002 107.89 218.797 108.559 219.421 108.694ZM81.0634 230.244C83.5939 229.198 86.4788 230.796 83.5156 231.971C82.9851 232.171 84.2087 230.624 83.4512 230.721C82.094 230.889 82.0276 232.851 80.4303 232.534C80.1428 232.474 80.922 230.298 81.0662 230.239C81.0653 230.24 81.0643 230.242 81.0634 230.244ZM193.58 142.983C193.615 142.992 194.092 142.526 194.079 142.493C193.769 141.712 192.811 142.647 193.58 142.983ZM232.22 83.4453C232.302 83.4192 232.604 81.8396 232.54 81.7748C231.427 80.8198 230.837 83.904 232.22 83.4453ZM161.597 174.867C161.531 175.923 160.919 176.557 159.855 176.197C160.444 175.769 161.008 175.303 161.597 174.867Z" fill="#17191A"></path><path d="M134.064 133.88C133.513 135.902 132.309 138.405 131.284 140.205C130.96 140.779 130.684 140.318 130.442 140.709C129.964 141.486 129.87 142.304 129.372 143.045C129.205 143.289 128.708 142.711 128.548 142.973C127.663 144.431 127.269 145.913 126.518 147.443C122.865 154.859 119.651 162.314 116.273 169.948C115.157 172.472 113.349 175.342 112.531 178.083C112.436 178.403 113.057 178.44 113.079 178.517C113.398 179.714 112.417 178.963 112.03 179.501C110.489 181.65 109.363 184.281 108.645 186.641C108.336 187.66 109.821 187.12 108.81 187.857C108.741 187.908 108.263 187.424 108.092 187.666C107.703 188.221 107.348 189.381 107.102 189.85C106.637 190.724 106.581 190.875 106.226 191.719C105.733 192.877 104.869 194.153 104.481 195.456C104.398 195.74 105.14 195.627 105.061 196.101C104.981 196.577 104.464 197.677 104.17 197.987C103.868 198.316 103.472 197.957 103.336 197.981C102.198 198.175 102.9 199.992 102.863 200.165C102.094 203.455 100.263 205.784 98.998 208.647C97.9974 210.874 97.3129 213.138 95.9561 215.505C95.9307 215.548 95.9052 215.589 95.8796 215.63C95.3005 216.543 94.7827 217.427 94.5442 218.029C94.4136 218.308 94.437 218.528 94.353 218.195C94.3069 218.037 94.144 217.705 93.8989 217.482C93.6525 217.251 93.4425 217.18 93.3899 217.157C93.3506 217.141 93.5949 216.423 93.5144 216.397C93.3875 216.375 93.9998 216.372 94.6011 216.236C95.2379 216.107 95.9252 215.925 96.6869 215.703C98.164 215.274 99.7514 214.756 101.393 214.273C101.716 214.179 101.607 214.961 101.95 214.902C102.264 214.844 102.618 214.784 102.999 214.709C105.091 214.324 107.681 213.609 107.485 210.928C108.803 210.35 110.417 209.595 111.832 209.471C112.746 209.39 112.383 210.42 113.142 209.642C113.314 209.466 112.736 209.066 113.019 208.844C114.179 207.927 115.69 207.303 116.793 206.294C117.019 206.085 116.666 205.635 116.689 205.504C116.898 204.432 118.579 205.038 118.859 204.99C120.926 204.649 122.024 203.672 123.598 202.771C123.968 202.56 123.149 202.158 123.491 201.931C125.262 200.767 127.172 199.718 129.141 198.947C129.582 198.777 129.543 199.552 129.769 199.5C130.75 199.269 130.312 198.106 131.251 197.858C131.449 197.804 131.636 198.338 131.698 198.372C132.672 198.907 132.402 197.493 132.508 197.395C133.862 196.119 135.597 196.735 137.009 195.666C137.178 195.536 136.409 195.176 136.908 194.847C140.209 192.667 143.907 190.701 147.566 189.196C148.134 188.961 148.028 189.636 148.094 189.673C149.147 190.231 148.806 188.852 148.952 188.707C150.116 187.594 151.95 187.84 152.054 185.9C158.053 183.034 163.328 178.923 169.77 176.932C169.852 176.905 170.052 177.562 170.213 177.506C172.149 176.84 171.296 176.127 171.829 174.362C171.964 173.918 173.609 174.757 173.743 174.811C174.233 175.012 174.425 176.049 174.56 176.065C175.663 176.17 173.918 173.367 174.991 172.765C175.027 172.751 175.183 173.359 175.302 173.362C175.675 173.371 175.834 173.005 176.21 173.034C177.073 173.106 178.076 174.382 178.579 173.035C178.642 172.862 177.547 171.329 178.551 170.874C178.952 170.693 180.634 169.728 181.169 169.573C181.703 169.418 181.667 170.126 181.713 170.13C183.377 170.126 183.05 170.683 184.257 171.368C185.46 172.05 183.94 169.686 184.052 169.268C184.165 168.85 185.421 168.916 185.761 168.992C186.101 169.068 185.995 169.561 186.262 169.564C188.025 169.571 186.198 168.016 186.435 167.382C186.484 167.251 186.543 167.142 186.609 167.052C187.311 166.109 188.905 167.238 189.878 166.929C190.166 166.838 189.729 166.534 189.942 166.37C190.79 165.726 191.656 166.001 192.435 164.917C192.562 164.74 192.835 163.183 193.819 163.703C193.959 163.779 193.977 164.355 194.428 164.249C195.103 164.092 196.223 163.635 196.781 163.151C197.195 162.792 196.259 162.315 196.977 162.242C197.296 162.21 197.036 162.907 197.616 162.811C198.193 162.715 199.444 162.046 199.915 161.785C200.388 161.523 199.83 161.082 199.848 161.023C199.97 160.679 200.753 159.929 200.835 159.888C204.921 157.718 209.22 156.802 213.106 154.518C213.413 154.34 212.903 153.827 212.947 153.794C213.912 153.01 213.843 155.059 214.866 155.241C214.155 154.045 214.712 154.055 215.411 153.552C215.75 153.307 215.316 152.92 215.326 152.854C215.526 151.855 216.363 152.622 216.553 152.77C217.258 153.312 217.251 152.279 217.725 152.64C218.197 152.998 217.964 153.971 218.693 153.614C218.687 153.068 217.587 152.154 218.055 151.7C219.839 149.973 224.221 149.065 225.985 148.382C227.732 147.704 228.254 147.37 229.324 147.087C231.253 146.581 230.204 145.996 231.151 145.094C232.101 144.193 232.507 146.602 232.874 146.996C233.237 147.392 233.199 146.837 233.508 147.006C233.816 147.176 233.532 147.679 234.034 147.573C234.531 147.469 235.444 146.084 235.395 145.526C235.293 144.342 234.252 143.503 235.645 143.353C235.726 143.345 235.743 144.016 236.038 143.957C238.384 143.467 240.637 142.546 242.955 142.043C243.276 141.974 243.274 142.724 243.464 142.692C245.434 142.357 244.343 141.545 244.839 139.94C245.269 141.629 246.218 142.38 247.588 141.837C248.41 141.512 247.987 140.87 248.32 140.165C248.421 139.951 249.2 140.198 249.174 139.826C249.096 138.611 248.066 137.623 249.677 137.541C249.748 137.539 249.783 138.207 250.012 138.158C251.489 137.847 251.229 136.647 252.682 135.928C253.832 135.359 256.202 135.25 257.606 134.858C258.257 136.686 259.362 135.803 259.432 134.353C260.339 134.079 261.25 133.67 262.176 133.535C262.493 133.489 262.487 134.088 262.545 134.131C263.433 134.825 263.38 133.464 263.554 133.349C265.459 132.151 267.475 132.503 269.148 130.93C269.207 130.874 268.897 129.556 269.743 130.314C269.799 130.367 269.331 131.167 270.286 130.902C271.237 130.639 273.23 130.756 274.339 129.757C274.606 129.515 275.098 128.217 275.989 128.84C276.108 128.925 276.127 129.323 276.313 129.492C276.91 130.027 276.728 128.659 277.537 129.624C278.178 130.394 279.081 130.894 279.96 130.493C280.191 130.389 280.421 130.225 280.646 129.991C280.681 129.957 280.699 128.829 281.119 128.728C281.781 128.57 282.8 128.522 283.489 128.329C283.819 128.235 283.432 127.645 283.487 127.618C285.643 126.651 287.394 126.822 289.876 126.503C290.323 126.448 291.411 125.26 292.427 125.779C293.532 126.35 293.273 129.766 295.245 128.553C296.034 128.071 296.347 123.748 298.344 125.582C301.326 124.495 304.328 125.155 307.332 124.018C307.468 123.967 307.774 122.757 308.107 122.734C308.599 122.704 308.931 123.216 309.285 123.214C310.764 123.22 312.063 122.632 313.493 122.591C314.033 122.576 313.885 123.151 314.53 123.136C315.173 123.121 315.548 122.351 316.444 122.656C317.12 122.889 317.851 124.367 318.721 124.504C318.685 123.009 319.28 123.01 320.332 122.577C320.534 122.493 320.296 121.981 320.391 121.914C320.778 121.632 321.156 122.052 321.524 121.749C321.614 121.676 321.603 121.165 321.676 121.077C322.297 120.307 323.375 121.434 323.557 121.631C324.259 122.379 324.569 121.711 325.101 122.005C325.631 122.299 324.848 122.68 325.463 122.856C326.736 123.22 328.365 123.141 329.654 123.18C330.169 123.192 329.826 122.506 329.9 122.492C330.969 122.332 332.033 123.078 332.654 121.733C333.314 125.261 333.306 121.406 334.817 122.151C334.936 122.211 335.039 123.875 334.573 124.106C334.107 124.336 333.426 123.799 332.779 124.165C332.625 124.25 331.735 125.788 331.616 125.88C330.688 126.6 330.596 124.119 330.549 123.981C330.016 122.502 328.936 124.168 328.662 124.282C327.392 124.804 326.318 124.458 325.263 124.846C324.574 125.098 324.529 126.724 323.992 126.682C322.214 126.549 321.508 124.301 319.893 126.328C319.548 126.763 319.983 128.519 318.639 127.182C318.556 127.098 317.532 125.869 317.025 126.709C316.962 126.815 316.994 127.331 316.905 127.38C316.311 127.697 315.882 127.311 315.231 127.554C314.578 127.797 313.815 128.151 313.043 128.041C312.58 127.974 311.912 127.067 311.669 126.852C310.981 126.233 310.432 127.41 309.964 126.631C309.487 125.85 310.123 124.517 309.031 124.097C309.14 125.438 309.204 126.82 309.293 128.171C307.091 128.368 304.869 128.228 302.673 128.634C302.401 128.685 302.793 129.355 302.505 129.429C301.295 129.739 300.129 129.416 298.899 129.851C297.932 130.193 297.016 131.151 296.028 131.549C295.102 130.167 293.673 131.003 292.542 131.115C292.142 131.155 292.075 130.749 291.769 130.682C290.623 130.437 291.415 131.651 291.181 131.925C290.173 133.101 289.356 130.13 287.919 130.566C287.839 130.588 287.308 132.416 287.211 132.547C286.568 133.401 286.935 132.028 286.395 132.043C285.401 132.074 284.661 131.865 283.691 132.63C283.404 132.856 282.928 134.05 282.099 133.463C281.989 133.387 281.886 132.852 281.812 132.84C281.201 132.761 280.96 133.068 280.83 133.494C280.683 133.995 280.689 134.662 280.415 135.068C279.914 135.816 278.529 135.004 278.226 134.742C277.422 134.069 278.537 134.256 278.544 134.164C278.603 133.077 277.894 133.473 277.29 133.567C276.72 131.994 275.928 132.342 276.663 133.673C276.744 133.818 277.152 133.53 277.29 133.567C277.261 135.29 276.43 135.765 274.997 134.611C274.319 134.073 274.507 133.133 273.186 133.877C272.594 134.213 273.194 135.228 272.734 135.707C271.678 136.803 269.697 136.332 268.427 136.945C267.974 137.165 268.638 137.603 268.336 137.774C267.538 138.228 266.613 138.049 265.834 138.58C265.763 138.628 266.172 139.184 265.908 139.285C263.907 140.072 261.991 140.317 259.881 141.088C258.852 141.464 257.17 142.488 256.084 142.828C254.221 143.41 251.628 143.399 250.151 144.242C249.194 144.786 249.664 145.309 249.399 145.9C248.892 147.043 246.823 146.203 246.534 146.061C246.525 146.056 247.332 145.557 246.742 145.433C246.206 144.891 246.542 146.054 246.534 146.061C246.347 145.968 244.547 146.549 244.252 146.81C244.092 146.951 244.436 147.484 244.349 147.547C242.254 149.026 239.998 150.159 237.557 150.901C237.51 150.907 237.294 150.239 237.189 150.262C235.705 150.568 235.192 151.728 234.284 152.685C233.371 153.644 232.437 153.876 231.285 153.078C230.506 153.593 229.093 153.65 228.268 153.673C227.443 153.695 227.912 154.977 227.862 155.029C226.335 156.675 224.911 156.477 222.912 157.278C221.955 157.66 220.202 158.707 219.263 159.32C218.52 159.808 217.907 159.748 217.268 160.282C217.181 160.354 217.544 160.852 217.524 160.887C217.027 161.931 216.774 160.41 216.491 160.253C215.465 159.68 214.856 159.406 214.018 160.317C213.823 160.527 214.061 162.783 213.68 163.109C213.183 163.53 213.06 162.738 212.547 163.197C212.502 163.236 212.721 163.654 212.347 163.815C210.613 164.569 208.641 165.246 206.904 166.177C206.665 166.302 207.311 166.814 206.972 167.006C205.391 167.905 203.596 168.791 201.862 169.292C201.433 169.413 201.436 168.822 201.28 168.728C200.33 168.16 200.222 169.756 200.114 169.841C197.539 171.92 194.754 171.992 192.112 174.076C192.01 174.158 191.713 175.167 191.14 175.452C190.907 175.567 190.629 175.563 190.299 175.328C190.222 175.275 189.07 174.436 189.012 175.468C189.009 175.532 189.66 175.932 189.042 176.191C188.423 176.45 187.693 177.352 186.54 177.154C186.175 177.093 184.955 176.299 184.687 177.613C184.671 177.703 184.618 180.373 183.429 179.208C183.234 179.016 182.487 177.5 182.001 178.76C181.909 179.003 182.406 179.157 182.064 179.616C181.543 180.32 180.398 180.441 179.909 181.576C179.824 181.776 179.75 183.131 178.816 182.658C178.669 182.584 178.545 182.008 178.245 182.104C176.814 182.562 175.665 183.644 174.173 184.043C173.645 184.185 173.43 183.26 172.83 183.32C172.229 183.381 171.151 183.726 170.853 184.375C170.558 185.024 171.826 185.971 171.133 186.501C168.127 188.803 164.478 189.93 161.166 191.716C160.676 191.981 161.335 192.197 160.633 192.618C158.034 194.178 153.769 197.25 150.949 197.634C148.674 197.95 150.629 196.014 149.051 196.528C148.291 196.777 148.428 198.657 148.294 198.797C146.983 200.199 145.519 200.197 144.203 201.243C143.932 201.459 144.57 201.876 144.336 202.053C143.539 202.663 142.499 202.924 141.701 203.461C141.348 203.702 141.681 204.111 141.324 204.276C140.474 204.675 139.65 204.907 138.609 204.955C138.514 204.959 138.668 204.113 138.057 204.446C137.078 204.983 135.622 205.283 134.767 206.368C134.512 206.692 135.117 207.722 133.98 207.436C133.742 207.376 133.203 206.029 133.001 207.587C132.962 207.849 132.438 210.098 131.192 209.581C130.867 209.443 129.81 208.703 129.508 209.095C129.469 209.152 130.009 209.578 129.713 209.825C128.654 210.689 127.403 211.342 126.293 212.222C125.997 212.457 126.812 212.751 126.362 213.083C125.139 213.99 123.397 214.802 121.993 215.368C121.472 215.577 121.532 214.909 121.467 214.877C120.421 214.355 120.747 215.681 120.601 215.853C119.659 216.918 118.493 216.87 117.477 217.627C117.198 217.833 117.717 218.26 117.684 218.342C117.334 219.164 117.244 217.925 116.795 218.034C115.546 218.329 114.352 219.045 113.25 219.732C112.851 219.983 113.661 220.371 113.299 220.587C111.428 221.72 109.399 222.74 107.253 223.473C106.927 223.586 106.607 223.689 106.292 223.781C105.826 223.916 105.862 223.281 105.717 223.208C104.743 222.68 104.278 224.223 104.123 224.416C103.3 225.351 102.737 225.048 101.824 225.504C100.701 226.058 99.4876 226.564 97.9408 226.997C96.3405 227.351 94.8044 227.996 91.1867 227.364C89.4755 227.101 86.0805 225.361 84.8296 222.354C83.616 219.49 84.0182 217.68 84.2163 216.406C84.7651 213.903 85.5409 212.639 86.2201 211.407C86.453 211.006 86.6892 210.627 86.9251 210.27C88.7574 207.419 90.8998 203.51 92.5461 199.36C92.6646 199.061 91.8532 199.068 91.9467 198.806C93.1422 195.541 94.7261 192.5 95.8622 189.189C95.9575 188.915 95.1464 189.031 95.2777 188.583C95.55 187.642 96.0227 186.595 96.6007 185.779C96.8799 185.385 97.1999 186.199 97.4696 185.797C98.0979 184.864 98.5784 183.822 98.9048 182.722C99.0416 182.256 98.0981 182.659 98.3277 182.074C99.8577 178.132 101.298 174.236 103.761 170.61C103.93 170.361 105.386 170.668 105.359 169.981C104.999 169.785 104.554 169.61 104.158 169.429C106.234 163.623 108.963 158.13 111.305 152.403C111.404 152.161 110.515 152.297 110.703 151.826C111.787 149.107 112.617 146.403 114.431 143.885C114.608 143.637 115.827 144.275 115.95 143.392C115.969 143.238 116.284 141.93 116.13 141.508C116.105 141.449 115.424 141.441 115.56 141.039C116.359 138.723 117.439 136.345 118.684 134.202C118.885 133.86 119.369 134.494 119.517 134.252C120.583 132.493 120.887 130.265 122.139 128.721C122.99 127.659 123.917 128.523 125.241 128.295C125.429 128.262 125.734 127.534 126.376 127.737C127.993 128.242 129.588 129.257 131.327 129.753C131.703 129.859 131.683 128.735 132.34 129.646C132.384 129.707 132.403 130.532 132.632 130.825C132.79 131.027 133.514 131.048 133.68 131.401C133.846 131.756 133.204 131.831 133.349 132.377C133.498 132.926 134.295 133.021 134.064 133.88ZM224.558 153.793C223.643 153.497 224.556 155.711 225.006 154.871C225.027 154.828 224.605 153.807 224.558 153.793ZM304.628 126.456C303.575 125.54 303.18 127.171 303.937 127.881C304.685 128.594 304.944 126.734 304.628 126.456ZM313.946 124.663C312.811 123.918 312.93 127.313 313.999 126.539C314.061 126.496 314.012 124.706 313.946 124.663ZM124.415 131.372C124.449 131.374 124.683 130.85 124.658 130.827C124.058 130.27 123.59 131.316 124.415 131.372ZM323.341 123.382C322.995 122.928 322.04 123.481 322.471 124.042C322.815 124.492 323.769 123.944 323.341 123.382ZM190.454 167.946C190.427 167.919 190.051 168.084 190.153 168.258C190.483 168.817 190.899 168.387 190.454 167.946ZM339.472 123.587C337.094 123.367 335.734 120.52 338.334 120.928C338.804 121.002 337.283 121.784 337.875 122.058C338.958 122.558 339.752 120.828 340.841 121.817C341.036 121.997 339.605 123.606 339.467 123.591C339.469 123.59 339.47 123.588 339.472 123.587ZM222.981 151.356C222.955 151.333 222.426 151.546 222.426 151.58C222.467 152.399 223.532 151.971 222.981 151.356ZM168.771 178.254C168.711 178.21 167.533 178.81 167.526 178.886C167.545 180.305 169.926 179.097 168.771 178.254ZM257.645 134.899C257.962 133.966 258.627 133.625 259.429 134.353C258.823 134.521 258.245 134.726 257.645 134.899Z" fill="#17191A"></path></svg> 