<?xml version="1.0" encoding="UTF-8"?> <svg xmlns="http://www.w3.org/2000/svg" width="164" height="32" viewBox="0 0 164 32" fill="none"><path d="M0.643234 17.4135C1.33966 16.6159 2.56946 15.9356 3.60046 15.5121C3.92269 15.3789 4.05177 15.8172 4.28678 15.7395C4.74528 15.5878 4.9508 15.1602 5.4267 15.0344C5.58593 14.9942 5.85609 15.6368 6.01357 15.5825C6.87442 15.2805 7.4115 14.6377 8.19435 14.2037C12.0988 12.0744 15.5057 9.57625 20.0915 7.31494C20.9245 6.92696 21.9466 6.61362 23.2476 6.33572C24.6143 6.02751 25.9724 6.02859 27.1526 6.04558C27.4461 6.0504 27.3521 5.44463 27.4148 5.40363C28.4528 4.81375 27.9486 5.94238 28.442 6.21553C30.2217 7.25011 31.6912 8.24172 33.0691 9.15766C33.1916 9.23836 33.3129 9.31737 33.4329 9.39455C34.0108 9.77218 34.2788 8.44042 34.3576 9.40039C34.362 9.46504 33.8114 9.80822 33.9006 9.98227C34.1051 10.3733 34.7213 10.8396 34.8936 11.101C35.2229 11.6025 35.2892 11.6698 35.6386 12.0869C36.1107 12.6629 36.3919 13.5224 36.9517 14.0272C37.0731 14.1344 37.4579 13.5789 37.6985 13.7164C37.9407 13.8555 38.291 14.4193 38.2973 14.6834C38.3048 14.9489 37.8433 15.173 37.773 15.2726C37.175 16.1068 38.6954 15.8925 38.7756 15.9441C40.2271 16.9474 40.4205 18.4487 41.3596 19.3718C41.5729 19.5792 41.808 19.7606 42.0464 19.9175C42.3822 20.1028 42.8368 20.2165 43.3085 20.4076C44.1105 20.7346 45.0096 21.2295 46.1563 21.2313C46.2759 21.2316 46.1749 20.4713 46.3163 20.4695C47.8276 20.4466 49.4473 20.4087 51.2082 20.685C51.3851 20.713 51.2547 21.3997 51.4391 21.4665C52.1933 21.7321 53.3266 22.2619 54.0255 21.6808C54.3351 21.4019 54.5094 20.8496 54.4302 19.8866C55.0248 19.8526 55.6972 19.7398 56.4329 20.0464C56.9116 20.2393 56.8988 21.0431 57.1816 20.5661C57.2444 20.4584 56.8456 19.9509 56.9542 19.8349C57.3973 19.354 58.0828 19.1724 58.3938 18.5424C58.4544 18.4142 58.0904 17.9784 58.0568 17.8765C57.7767 17.0595 58.9813 17.8374 59.1416 17.8295C60.264 17.8411 60.5448 17.1474 61.1058 16.546C61.2371 16.4041 60.5172 16.0704 60.6194 15.9193C61.1519 15.1454 61.7991 14.398 62.6366 13.7737C62.8247 13.635 63.245 14.1686 63.363 14.1198C63.8804 13.8915 62.9169 13.1284 63.3841 12.8933C63.4816 12.842 63.9192 13.1872 63.98 13.2053C64.9365 13.4859 63.9235 12.55 63.9345 12.4759C64.0631 11.4967 65.5788 11.7143 65.8716 10.8229C65.9052 10.7157 65.1752 10.5723 65.3062 10.2932C66.1877 8.44354 67.4371 6.49363 69.4999 4.95765C69.825 4.7239 70.0288 5.28666 70.095 5.30998C71.0849 5.72859 70.2798 4.6154 70.3494 4.4768C70.5051 4.15793 70.8162 3.94589 71.1168 3.78783C71.7651 3.44059 72.3272 3.31626 72.4357 2.09734C75.2302 1.29725 77.6919 1.70028 79.6489 2.27256C81.4438 2.81168 83.1117 3.74039 84.2755 5.20636C84.3074 5.24432 83.8997 5.78267 83.9632 5.85507C84.7099 6.73857 85.0565 5.73658 86.4018 5.09274C86.7486 4.93757 86.3525 6.53389 86.3214 6.6513C86.2284 7.09438 85.5012 7.80154 85.5033 7.90156C85.5208 8.69079 87.3907 5.97002 87.9538 6.39002C87.9676 6.40725 87.5303 6.83773 87.5396 6.92038C87.5663 7.17787 87.852 7.09283 87.8605 7.36391C87.8781 7.99082 86.9784 9.32048 88.0153 8.9618C88.1491 8.9156 89.2446 7.39163 89.6544 7.84714C89.8177 8.02829 90.6396 8.69063 90.7773 8.97551C90.9169 9.25932 90.3678 9.57939 90.3665 9.61293C90.421 10.7246 89.98 10.7764 89.4787 11.9107C88.9755 13.0387 90.7721 10.8836 91.0989 10.7567C91.4259 10.631 91.4014 11.497 91.3485 11.7584C91.2961 12.0201 90.9113 12.1877 90.9144 12.3656C90.9415 13.5355 92.1158 11.5779 92.6134 11.4297C93.7899 11.0778 92.7439 12.9402 93.0312 13.4769C93.1089 13.6219 93.3339 13.1864 93.4656 13.2461C93.9816 13.4856 93.7927 14.1893 94.6484 14.1523C94.7903 14.1488 95.9793 13.5294 95.6187 14.4292C95.5667 14.559 95.1304 14.8675 95.2292 15.1053C95.3751 15.4609 95.7791 15.9477 96.1748 16.0452C96.4658 16.1161 96.7631 15.2586 96.8579 15.6756C96.9008 15.8616 96.3703 16.0771 96.4797 16.3959C96.5887 16.716 97.1796 17.1428 97.4122 17.2907C97.6441 17.4395 97.9052 16.8273 97.9491 16.8055C98.2043 16.6841 98.7974 16.7225 98.8327 16.7467C99.0303 16.8742 99.2196 17.0078 99.4032 17.1456C100.563 18.1107 102.13 19.1681 103.832 18.2653C103.971 18.1895 103.651 17.5767 103.67 17.5584C104.038 17.1203 104.285 18.9674 104.904 19.3764C104.326 18.1143 104.635 18.2661 104.934 17.9538C105.071 17.8041 104.74 17.3684 104.732 17.3115C104.594 16.4701 105.242 17.313 105.399 17.4726C105.957 18.0694 105.666 17.1539 106.05 17.5396C106.443 17.9145 106.569 18.7538 106.933 18.5153C106.763 18.0351 105.823 17.0963 105.957 16.7618C106.408 15.5619 108.625 15.0078 109.395 14.3964C110.145 13.8204 110.291 13.5316 110.806 13.2557C111.732 12.7492 110.78 12.355 110.871 11.6064C110.959 10.8545 112.515 12.6604 112.954 12.9343C113.393 13.2068 113.07 12.7831 113.353 12.8851C113.637 12.9866 113.732 13.4006 113.988 13.2704C114.247 13.1384 114.046 11.993 113.703 11.5756C112.978 10.6898 111.874 10.16 112.634 9.9127C112.678 9.89869 113.068 10.4008 113.214 10.3263C114.363 9.71961 115.193 8.75931 116.297 8.08792C116.449 7.99574 116.887 8.5529 116.983 8.5039C117.974 7.99904 116.838 7.54199 116.202 6.27714C117.451 7.4759 118.452 7.92031 118.957 7.3371C119.255 6.99476 118.631 6.56551 118.425 5.98968C118.364 5.81521 118.968 5.90789 118.738 5.63198C117.998 4.72017 116.812 4.09896 117.75 3.82188C117.792 3.81176 118.189 4.31952 118.299 4.25397C118.319 4.2421 118.338 4.22992 118.356 4.21741C119.058 3.71843 118.331 2.79463 119.157 1.99239C119.849 1.31638 121.687 1.29422 122.625 1.27203C123.028 3.16467 123.567 2.62076 123.869 1.27463C124.471 1.29636 125.112 1.25826 125.63 1.51403C125.806 1.60157 125.606 2.14143 125.621 2.20473C125.803 3.1917 126.242 1.95404 126.373 1.9281C127.759 1.716 128.365 2.98558 129.791 2.5441C129.84 2.52779 130.447 1.3201 130.344 2.35195C130.33 2.42069 129.736 2.82475 130.207 3.09028C130.685 3.35788 131.242 4.44447 132.176 4.24505C132.397 4.19381 133.339 3.4645 133.228 4.38694C133.212 4.5113 132.975 4.82104 132.927 5.04145C132.773 5.74381 133.564 4.62707 133.203 5.75736C132.846 6.89041 132.829 7.8874 133.856 7.58335C133.887 7.57515 134.598 6.74492 134.782 6.87952C135.074 7.09474 135.388 7.55936 135.708 7.75509C135.862 7.84897 136.125 7.22184 136.158 7.22837C137.389 7.56928 137.786 8.54394 138.733 9.4688C138.906 9.63967 139.976 9.24452 139.97 10.1003C139.968 11.0394 137.746 13.5271 139.168 13.5033C139.748 13.4997 142.46 10.2743 142.041 12.5547C143.712 12.9478 144.498 14.6814 146.341 14.7587C146.423 14.7625 147.155 13.8259 147.298 13.9141C147.513 14.0483 147.403 14.5993 147.553 14.7102C147.933 15.0007 148.399 15.063 148.841 15.1381L148.814 15.1283C149.102 15.1466 149.384 15.1701 149.651 15.2685C149.913 15.3621 149.683 15.8861 150.006 15.995C150.335 16.1021 150.701 15.4227 151.076 15.8567C151.356 16.1856 151.471 17.7412 151.934 17.9834C152.157 16.5042 152.47 16.5804 153.068 16.25C153.183 16.1857 153.126 15.6557 153.183 15.5986C153.413 15.3541 153.557 15.8027 153.779 15.5316C153.834 15.4666 153.887 14.9587 153.934 14.8768C154.331 14.1606 154.769 15.3579 154.842 15.567C155.123 16.36 155.364 15.7187 155.608 16.0503C155.845 16.3822 155.391 16.7005 155.682 16.9214C155.724 16.9533 155.766 16.9832 155.809 17.0113C156.389 17.3849 157.108 17.4636 157.665 17.665C157.903 17.7475 157.951 17.0471 157.99 17.0438C158.591 17.0577 158.801 17.9366 159.652 16.8332C158.518 20.1803 160.11 16.6608 160.539 17.6792C160.571 17.7613 159.842 19.2537 159.533 19.365C159.224 19.4769 159.156 18.8596 158.719 19.0762C158.606 19.1206 157.637 20.3945 157.572 20.4714C156.986 21.0272 157.801 18.69 157.819 18.5502C158.054 17.0683 157.038 18.5138 156.92 18.6067C156.359 18.9254 156.008 18.6793 155.56 18.7826C155.482 18.8015 155.401 18.8317 155.318 18.879C154.956 19.0805 154.744 20.6931 154.493 20.6157C153.62 20.3588 153.5 18.0793 152.323 19.9212C152.062 20.3108 152.055 22.1053 151.445 20.613C151.4 20.5186 151.021 19.1714 150.549 19.9074C150.489 20.0003 150.4 20.5103 150.335 20.5428C149.893 20.7487 149.71 20.2926 149.244 20.3922C148.776 20.4912 148.176 20.646 147.732 20.3372C147.599 20.2456 147.509 19.9478 147.446 19.6365C147.357 19.6013 147.083 19.5187 146.999 19.4742C146.978 19.1535 146.987 18.8227 146.974 18.6864C146.913 17.9178 146.091 18.7683 146.231 17.9239C146.383 17.0806 147.296 16.1219 147.023 15.3999C146.423 16.604 145.781 17.827 145.16 19.0293C143.963 18.3986 143.045 17.4067 141.906 16.8196C141.764 16.7477 141.544 17.4554 141.381 17.3936C140.693 17.1272 140.424 16.3648 139.691 16.1562C139.123 15.9976 138.19 16.317 137.589 16.164C138.11 14.6725 137.105 14.6493 136.662 14.1952C136.507 14.0368 136.743 13.6994 136.687 13.5034C136.472 12.7726 135.958 14.0608 135.709 14.154C134.645 14.5519 136.272 11.9376 135.57 11.5721C135.534 11.5522 134.212 12.6505 134.099 12.6992C133.366 13.0188 134.348 12.1797 134.182 11.9279C133.883 11.4715 133.791 10.9465 133.044 11.0426C132.824 11.0717 131.937 11.7211 132.082 10.8804C132.1 10.7699 132.406 10.3215 132.394 10.2763C132.141 9.49739 131.232 10.9408 130.642 11.2588C130.058 11.5801 130.201 10.3005 130.277 9.95354C130.472 9.05349 130.652 9.73694 130.709 9.67125C131.384 8.87971 130.952 8.83046 130.738 8.60883C131.532 7.13749 131.096 7.0075 130.507 8.3828C130.442 8.53246 130.725 8.51364 130.738 8.60883C129.691 9.89957 129.232 9.8812 129.519 8.29971C129.65 7.5578 130.229 6.91052 129.452 6.85949C129.1 6.83922 128.7 7.92493 128.323 8.09089C127.487 8.48181 127.218 7.20103 126.615 7.17189C126.406 7.16509 126.385 7.8236 126.239 7.84135C125.862 7.89561 125.719 7.36415 125.365 7.53221C125.335 7.54896 125.25 8.20512 125.168 8.19588C124.566 8.14501 124.229 7.73009 123.94 7.77217C123.787 7.79882 123.799 8.1876 123.673 8.18415C123.536 8.18126 123.105 8.02268 122.692 8.12686C122.333 8.29906 122.009 8.53218 121.872 8.8311C121.628 9.34334 122.21 9.67979 122.403 10.146C122.779 11.0483 121.063 10.6728 120.8 10.6115C120.793 10.6081 120.985 10.133 120.558 10.1171C119.919 9.78352 120.801 10.6055 120.8 10.6115C120.638 10.5626 119.892 11.2299 119.866 11.4604C119.851 11.5867 120.371 11.9383 120.354 11.9967C119.939 13.377 119.181 14.5421 118.025 15.4308C117.999 15.4415 117.495 14.9553 117.441 14.9859C116.669 15.4007 116.958 16.3617 116.856 17.2253C116.754 18.0882 116.226 18.3961 115.07 17.8647C114.806 18.3562 113.871 18.5356 113.327 18.6069C112.78 18.6822 113.658 19.7205 113.646 19.7691C113.271 21.2774 112.161 21.2103 110.942 21.9649C110.363 22.3259 109.282 23.2696 108.588 23.7965C108.05 24.2172 107.534 24.1096 107.012 24.5476C106.939 24.6066 107.252 25.1331 107.235 25.1651C106.767 26.1291 106.588 24.6054 106.352 24.413C105.491 23.6963 105.101 23.304 104.292 23.952C104.136 24.0962 103.792 26.3263 103.264 26.5008C102.615 26.7152 102.816 25.9387 102.147 26.1452C102.088 26.16 102.11 26.6371 101.667 26.61C99.5944 26.4969 97.4323 25.5785 95.7579 24.6828C95.5271 24.559 95.46 25.3806 95.1082 25.2016C94.8644 25.0753 94.622 24.938 94.3833 24.7901C93.4669 24.24 92.6235 23.5429 92.0656 22.7295C91.9064 22.4928 92.3634 22.1854 92.4133 22.027C92.7178 21.0712 91.4835 21.83 91.3999 21.795C89.461 21.0537 89.2338 19.1714 87.5262 18.4114C87.4307 18.371 85.8978 18.954 86.51 17.8112C86.5504 17.7348 87.1815 16.5698 86.3839 17.0325C86.3344 17.0618 86.0327 17.6821 85.8268 17.4036C85.62 17.1246 84.9281 17.095 85.0766 16.2543C85.1244 15.9903 85.715 14.7996 84.7276 15.2966C84.6541 15.3265 82.6823 16.6799 83.5462 15.3244C83.6886 15.1017 84.7978 13.8266 83.873 14.1855C83.6963 14.2577 83.5839 14.652 83.2523 14.6847C82.7467 14.7397 82.6551 14.0907 81.8691 14.4399C81.7274 14.4995 80.8129 15.2458 81.1359 14.4076C81.1852 14.2755 81.5721 13.8594 81.5053 13.7341C81.1835 13.1329 80.4729 13.117 80.1894 12.4982C80.0851 12.2787 80.6327 11.5429 80.56 11.2206C80.4889 10.8986 80.1911 10.4748 79.8026 10.7489C79.4212 11.0262 78.991 12.43 78.6762 12.4089C77.9913 12.3712 77.497 12.0876 76.9826 11.766C76.4185 11.4329 76.0365 11.1391 75.8722 11.0756C75.833 11.0561 75.8421 11.576 75.8355 11.5859C75.8357 11.5963 75.9366 11.6466 76.1482 11.6213C76.354 11.6006 76.6439 11.4806 76.783 11.3239C76.9573 11.1061 76.5723 11.1953 76.0286 11.1571C74.9208 11.1563 74.9169 10.0395 74.2821 10.2899C73.958 10.4429 75.1587 11.6837 75.1652 11.7703C75.2082 12.6846 74.2667 12.8004 74.0446 13.6232C73.9991 13.7935 74.6727 13.9984 74.6275 14.1396C74.4779 14.6261 73.9403 14.9411 73.7313 15.4066C73.638 15.6178 74.1092 15.8474 73.9657 16.011C73.6289 16.4032 73.199 16.6953 72.51 16.8849C72.4474 16.9018 72.0582 16.2917 71.8325 16.6151C71.4678 17.1403 70.6352 17.5578 70.6244 18.4736C70.6229 18.7454 71.6077 19.4242 70.6396 19.3775C70.4355 19.3688 69.341 18.4357 70.0174 19.6264C70.1395 19.8147 70.8736 21.6486 69.6909 21.408C69.3814 21.3444 68.2533 20.8807 68.2127 21.2214C68.2096 21.2716 68.8102 21.5507 68.7003 21.7833C68.3009 22.5982 67.6152 23.2637 67.0743 24.0867C66.9282 24.3089 67.6747 24.5045 67.435 24.8258C66.7728 25.7161 65.5685 26.5238 64.5297 27.0123C64.1469 27.1915 64.0616 26.5758 64.0014 26.5455C63.0622 26.0199 63.573 27.2542 63.4739 27.411C62.8695 28.3496 61.8719 28.2034 61.105 28.7605C60.8904 28.9122 61.3267 29.3971 61.304 29.4701C61.0328 30.201 60.9298 29.0074 60.5673 29.0373C59.5488 29.1138 58.5952 29.5181 57.706 29.8593C57.3756 29.9857 57.96 30.5745 57.6524 30.6808C57.0485 30.8909 56.4508 31.0506 55.8165 31.1649C54.862 31.3336 53.8649 31.3789 52.8792 31.2451C52.6033 31.206 52.6941 30.6287 52.6216 30.5098C52.1286 29.6763 51.7299 30.9526 51.6067 31.0831C51.0704 31.6775 50.7809 31.209 50.2529 31.3478C47.6695 32.0283 44.0454 31.7683 40.7616 30.6039C38.9966 29.9815 37.229 29.002 35.6854 27.5393C34.1959 26.041 33.1714 24.6084 32.0281 23.2874C31.905 23.1429 31.4365 23.7518 31.3221 23.6318C29.878 22.0583 29.1131 20.4289 28.0214 19.422C27.9343 19.3402 27.4913 19.9138 27.3362 19.8017C27.0144 19.5754 26.7646 19.2262 26.7152 18.8421C26.6887 18.6542 27.2762 18.397 27.2365 18.2127C27.1432 17.781 26.9006 17.4759 26.586 17.3538C26.4542 17.306 26.1292 17.9772 26.0036 17.8812C25.9818 17.8652 25.9601 17.8496 25.9387 17.8344C25.7129 17.6906 25.4921 17.6422 25.5681 17.5877C25.613 17.53 26.1037 17.4094 26.4278 16.8502C26.4543 16.8042 26.3449 16.2758 26.2557 15.9185C26.1705 15.6854 26.0896 15.5324 26.085 15.6544C26.2148 16.0401 26.3787 16.4897 26.525 16.8992C25.5124 17.4997 22.3189 19.0377 19.918 20.7573C19.8118 20.833 20.4576 21.3196 20.2549 21.469C19.0881 22.3311 18.0844 23.3818 16.3966 23.7242C16.2299 23.7592 15.4483 22.6353 15.22 23.0776C15.1805 23.1565 14.7567 23.7222 14.8014 24.0649C14.8102 24.115 15.3032 24.5384 15.1417 24.6896C14.1963 25.5589 13.0427 26.2876 11.7747 26.7891C11.5691 26.8692 11.326 26.1963 11.176 26.2486C10.1183 26.6216 9.5145 27.7476 8.3173 27.8878C7.51216 27.9807 7.00562 26.8898 6.01797 26.1888C5.87768 26.0908 5.52312 26.3262 5.10211 25.8012C4.04206 24.4828 3.08723 22.8841 1.93778 21.4935C1.68976 21.1946 1.51549 21.8478 1.20429 20.9086C1.18381 20.8457 1.30587 20.3641 1.19093 20.0518C1.11144 19.836 0.602992 19.3632 0.541238 19.0567C0.480268 18.7498 0.941684 19.1193 0.92029 18.7193C0.894964 18.317 0.346948 17.7572 0.643234 17.4135ZM110.869 18.8843C110.137 18.6452 111.605 20.5365 111.601 19.7938C111.598 19.756 110.906 18.8952 110.869 18.8843ZM143.934 15.8219C144.006 14.6568 142.945 15.8378 142.86 16.7258C142.785 17.6171 143.918 16.1776 143.934 15.8219ZM149.286 17.3432C148.92 16.3892 147.9 19.6274 148.775 19.1479C148.826 19.1209 149.31 17.3988 149.286 17.3432ZM7.14908 24.9073C7.12538 24.8855 6.86624 25.0466 6.87988 25.0758C7.21558 25.7767 7.73517 25.453 7.14908 24.9073ZM154.536 17.2909C154.408 16.8165 153.849 17.294 154.012 17.8835C154.144 18.3576 154.693 17.8806 154.536 17.2909ZM92.257 14.3516C92.2767 14.3213 92.1395 14.1531 92.007 14.3049C91.5806 14.7947 91.9257 14.8609 92.257 14.3516ZM161.989 20.0259C161.052 19.2752 161.766 16.4517 162.834 17.4671C163.02 17.6492 161.896 17.9391 162.04 18.3244C162.288 19.0176 163.569 17.7495 163.554 18.87C163.544 19.0695 162.034 20.0696 161.985 20.028C161.986 20.0273 161.987 20.0266 161.989 20.0259ZM108.85 16.8265C108.824 16.8075 108.575 16.9727 108.589 17.0011C108.939 17.6969 109.456 17.3521 108.85 16.8265ZM83.2177 5.36675C83.2365 5.29711 82.6147 4.90831 82.5642 4.9561C81.6992 5.90916 82.8763 6.65589 83.2177 5.36675ZM122.65 1.31977C122.901 0.485337 123.506 0.32809 123.867 1.27375C123.472 1.24337 123.062 1.28465 122.65 1.31977Z" fill="#FF4F28"></path></svg> 